<svg xmlns="http://www.w3.org/2000/svg" xmlns:xlink="http://www.w3.org/1999/xlink" version="1.1" width="256" height="256" viewBox="0 0 256 256" xml:space="preserve">
<g style="stroke: none; stroke-width: 0; stroke-dasharray: none; stroke-linecap: butt; stroke-linejoin: miter; stroke-miterlimit: 10; fill: none; fill-rule: nonzero; opacity: 1;" transform="translate(1.4065934065934016 1.4065934065934016) scale(2.81 2.81)">
	<path d="M 24.23 54.184 h -7.143 c -0.926 0 -1.676 -0.75 -1.676 -1.676 v -7.179 c 0 -0.926 0.75 -1.676 1.676 -1.676 h 7.143 c 0.926 0 1.676 0.75 1.676 1.676 v 7.179 C 25.906 53.433 25.156 54.184 24.23 54.184 z" style="stroke: none; stroke-width: 1; stroke-dasharray: none; stroke-linecap: butt; stroke-linejoin: miter; stroke-miterlimit: 10; fill: rgb(132,132,132); fill-rule: nonzero; opacity: 1;" transform=" matrix(1 0 0 1 0 0) " stroke-linecap="round"/>
	<path d="M 40.458 54.184 h -7.143 c -0.926 0 -1.676 -0.75 -1.676 -1.676 v -7.179 c 0 -0.926 0.75 -1.676 1.676 -1.676 h 7.143 c 0.926 0 1.676 0.75 1.676 1.676 v 7.179 C 42.134 53.433 41.383 54.184 40.458 54.184 z" style="stroke: none; stroke-width: 1; stroke-dasharray: none; stroke-linecap: butt; stroke-linejoin: miter; stroke-miterlimit: 10; fill: rgb(132,132,132); fill-rule: nonzero; opacity: 1;" transform=" matrix(1 0 0 1 0 0) " stroke-linecap="round"/>
	<path d="M 56.685 54.184 h -7.143 c -0.926 0 -1.676 -0.75 -1.676 -1.676 v -7.179 c 0 -0.926 0.75 -1.676 1.676 -1.676 h 7.143 c 0.926 0 1.676 0.75 1.676 1.676 v 7.179 C 58.361 53.433 57.611 54.184 56.685 54.184 z" style="stroke: none; stroke-width: 1; stroke-dasharray: none; stroke-linecap: butt; stroke-linejoin: miter; stroke-miterlimit: 10; fill: rgb(132,132,132); fill-rule: nonzero; opacity: 1;" transform=" matrix(1 0 0 1 0 0) " stroke-linecap="round"/>
	<path d="M 72.913 54.184 H 65.77 c -0.926 0 -1.676 -0.75 -1.676 -1.676 v -7.179 c 0 -0.926 0.75 -1.676 1.676 -1.676 h 7.143 c 0.926 0 1.676 0.75 1.676 1.676 v 7.179 C 74.589 53.433 73.839 54.184 72.913 54.184 z" style="stroke: none; stroke-width: 1; stroke-dasharray: none; stroke-linecap: butt; stroke-linejoin: miter; stroke-miterlimit: 10; fill: rgb(132,132,132); fill-rule: nonzero; opacity: 1;" transform=" matrix(1 0 0 1 0 0) " stroke-linecap="round"/>
	<path d="M 24.23 72.536 h -7.143 c -0.926 0 -1.676 -0.75 -1.676 -1.676 v -7.179 c 0 -0.926 0.75 -1.676 1.676 -1.676 h 7.143 c 0.926 0 1.676 0.75 1.676 1.676 v 7.179 C 25.906 71.785 25.156 72.536 24.23 72.536 z" style="stroke: none; stroke-width: 1; stroke-dasharray: none; stroke-linecap: butt; stroke-linejoin: miter; stroke-miterlimit: 10; fill: rgb(132,132,132); fill-rule: nonzero; opacity: 1;" transform=" matrix(1 0 0 1 0 0) " stroke-linecap="round"/>
	<path d="M 40.458 72.536 h -7.143 c -0.926 0 -1.676 -0.75 -1.676 -1.676 v -7.179 c 0 -0.926 0.75 -1.676 1.676 -1.676 h 7.143 c 0.926 0 1.676 0.75 1.676 1.676 v 7.179 C 42.134 71.785 41.383 72.536 40.458 72.536 z" style="stroke: none; stroke-width: 1; stroke-dasharray: none; stroke-linecap: butt; stroke-linejoin: miter; stroke-miterlimit: 10; fill: rgb(132,132,132); fill-rule: nonzero; opacity: 1;" transform=" matrix(1 0 0 1 0 0) " stroke-linecap="round"/>
	<path d="M 56.685 72.536 h -7.143 c -0.926 0 -1.676 -0.75 -1.676 -1.676 v -7.179 c 0 -0.926 0.75 -1.676 1.676 -1.676 h 7.143 c 0.926 0 1.676 0.75 1.676 1.676 v 7.179 C 58.361 71.785 57.611 72.536 56.685 72.536 z" style="stroke: none; stroke-width: 1; stroke-dasharray: none; stroke-linecap: butt; stroke-linejoin: miter; stroke-miterlimit: 10; fill: rgb(132,132,132); fill-rule: nonzero; opacity: 1;" transform=" matrix(1 0 0 1 0 0) " stroke-linecap="round"/>
	<path d="M 72.913 72.536 H 65.77 c -0.926 0 -1.676 -0.75 -1.676 -1.676 v -7.179 c 0 -0.926 0.75 -1.676 1.676 -1.676 h 7.143 c 0.926 0 1.676 0.75 1.676 1.676 v 7.179 C 74.589 71.785 73.839 72.536 72.913 72.536 z" style="stroke: none; stroke-width: 1; stroke-dasharray: none; stroke-linecap: butt; stroke-linejoin: miter; stroke-miterlimit: 10; fill: rgb(132,132,132); fill-rule: nonzero; opacity: 1;" transform=" matrix(1 0 0 1 0 0) " stroke-linecap="round"/>
	<path d="M 25.405 16.74 L 25.405 16.74 c -2.601 0 -4.71 -2.109 -4.71 -4.71 V 4.71 c 0 -2.601 2.109 -4.71 4.71 -4.71 h 0 c 2.601 0 4.71 2.109 4.71 4.71 v 7.319 C 30.115 14.631 28.006 16.74 25.405 16.74 z" style="stroke: none; stroke-width: 1; stroke-dasharray: none; stroke-linecap: butt; stroke-linejoin: miter; stroke-miterlimit: 10; fill: rgb(132,132,132); fill-rule: nonzero; opacity: 1;" transform=" matrix(1 0 0 1 0 0) " stroke-linecap="round"/>
	<path d="M 64.595 16.74 L 64.595 16.74 c -2.601 0 -4.71 -2.109 -4.71 -4.71 V 4.71 c 0 -2.601 2.109 -4.71 4.71 -4.71 h 0 c 2.601 0 4.71 2.109 4.71 4.71 v 7.319 C 69.306 14.631 67.197 16.74 64.595 16.74 z" style="stroke: none; stroke-width: 1; stroke-dasharray: none; stroke-linecap: butt; stroke-linejoin: miter; stroke-miterlimit: 10; fill: rgb(132,132,132); fill-rule: nonzero; opacity: 1;" transform=" matrix(1 0 0 1 0 0) " stroke-linecap="round"/>
	<path d="M 80.199 7.292 h -5.637 v 5.787 c 0 5.523 -4.462 10 -9.966 10 c -5.504 0 -9.966 -4.477 -9.966 -10 V 7.292 H 35.37 v 5.787 c 0 5.523 -4.462 10 -9.966 10 c -5.504 0 -9.966 -4.477 -9.966 -10 V 7.292 H 9.801 C 4.397 7.292 0 11.704 0 17.126 v 8.381 v 8 v 46.657 C 0 85.588 4.397 90 9.801 90 h 70.398 C 85.603 90 90 85.588 90 80.165 V 33.508 v -8 v -8.381 C 90 11.704 85.603 7.292 80.199 7.292 z M 82.027 80.165 c 0 1.013 -0.819 1.835 -1.829 1.835 H 9.801 c -1.01 0 -1.828 -0.821 -1.828 -1.834 V 35.834 c 0 -1.284 1.038 -2.326 2.318 -2.326 H 79.71 c 1.28 0 2.318 1.041 2.318 2.326 V 80.165 z" style="stroke: none; stroke-width: 1; stroke-dasharray: none; stroke-linecap: butt; stroke-linejoin: miter; stroke-miterlimit: 10; fill: rgb(132,132,132); fill-rule: nonzero; opacity: 1;" transform=" matrix(1 0 0 1 0 0) " stroke-linecap="round"/>
</g>
</svg>